<svg width="98" height="98" viewBox="0 0 98 98" fill="none" xmlns="http://www.w3.org/2000/svg">
<g clip-path="url(#clip0_295_6389)">
<path d="M17.3275 7.88682e-06H80.522C82.798 -0.00219235 85.0522 0.455987 87.1554 1.34832C89.2587 2.24066 91.1697 3.54964 92.7791 5.20034C94.3886 6.85104 95.6648 8.81107 96.5349 10.9682C97.4049 13.1254 97.8516 15.4374 97.8495 17.7718V80.0777C97.8516 82.4121 97.4049 84.7241 96.5349 86.8812C95.6648 89.0384 94.3886 90.9984 92.7791 92.6491C91.1697 94.2998 89.2587 95.6088 87.1554 96.5011C85.0522 97.3935 82.798 97.8517 80.522 97.8495H17.3275C15.0514 97.8517 12.7973 97.3935 10.694 96.5011C8.59079 95.6088 6.67977 94.2998 5.07033 92.6491C3.4609 90.9984 2.18465 89.0384 1.31462 86.8812C0.444588 84.7241 -0.00213754 82.4121 7.68965e-06 80.0777V17.7718C-0.00213754 15.4374 0.444588 13.1254 1.31462 10.9682C2.18465 8.81107 3.4609 6.85104 5.07033 5.20034C6.67977 3.54964 8.59079 2.24066 10.694 1.34832C12.7973 0.455987 15.0514 -0.00219235 17.3275 7.88682e-06Z" fill="#000B1D"/>
<path d="M81.701 33.7467C81.7004 32.5077 81.4355 31.413 80.8996 30.4736C80.3733 29.5494 79.585 28.775 78.5277 28.1627C69.8 23.1303 61.0638 18.1132 52.3389 13.0756C49.9867 11.7177 47.706 11.7674 45.3713 13.1449C41.8974 15.1934 24.5048 25.158 19.322 28.1599C17.1876 29.3958 16.149 31.2868 16.1485 33.7444C16.1451 43.8649 16.1485 53.9855 16.1451 64.1061C16.1451 65.3178 16.3993 66.3916 16.9116 67.3168C17.4382 68.2687 18.2375 69.0644 19.3192 69.6905C24.5022 72.6925 41.8971 82.6563 45.3703 84.7056C47.706 86.0838 49.9867 86.133 52.3396 84.7748C61.0648 79.737 69.8015 74.7199 78.5305 69.6875C79.6122 69.0616 80.4115 68.2654 80.9381 67.3142C81.4496 66.3888 81.7043 65.3153 81.7043 64.1033C81.7043 64.1033 81.7043 43.8675 81.701 33.7467Z" fill="#A179DC"/>
<path d="M49.025 48.8267L16.9116 67.3169C17.4382 68.2688 18.2375 69.0645 19.3192 69.6906C24.5022 72.6925 41.8971 82.6564 45.3702 84.7056C47.706 86.0839 49.9866 86.1331 52.3396 84.7749C61.0647 79.7371 69.8014 74.72 78.5305 69.6875C79.6122 69.0616 80.4114 68.2654 80.9381 67.3143L49.025 48.8267Z" fill="#280068"/>
<path d="M81.7009 33.7467C81.7004 32.5078 81.4354 31.413 80.8996 30.4736L49.025 48.8269L80.938 67.3143C81.4495 66.3888 81.7037 65.3153 81.7042 64.1033C81.7042 64.1033 81.7042 43.8675 81.7009 33.7467Z" fill="#390091"/>
<path d="M67.9323 41.9146V45.3708H71.3885V41.9146H73.1166V45.3708H76.5729V47.0989H73.1166V50.5548H76.5729V52.2829H73.1166V55.7391H71.3885V52.2829H67.9323V55.7391H66.2042V52.2829H62.7483V50.5548H66.2042V47.0989H62.7483V45.3708H66.2042V41.9146H67.9323ZM71.3885 47.0986H67.9323V50.5548H71.3885V47.0986Z" fill="white"/>
<path d="M49.0956 24.5569C58.1103 24.5569 65.9808 29.4526 70.1965 36.7298L70.1555 36.6598L59.5488 42.7667C57.4593 39.2287 53.6286 36.8409 49.2338 36.7916L49.0953 36.7909C42.394 36.7909 36.9611 42.2237 36.9611 48.925C36.9589 51.0372 37.5107 53.113 38.5615 54.9453C40.6531 58.5967 44.5851 61.0594 49.0956 61.0594C53.634 61.0594 57.5883 58.5654 59.6691 54.875L59.6186 54.9635L70.2091 61.0987C66.0395 68.3143 58.2768 73.1949 49.367 73.2921L49.0956 73.2937C40.0523 73.2937 32.1595 68.3677 27.9543 61.052C25.9015 57.4806 24.7269 53.3403 24.7269 48.925C24.7269 35.467 35.6368 24.5566 49.0953 24.5566L49.0956 24.5569Z" fill="white"/>
</g>
<defs>
<clipPath id="clip0_295_6389">
<rect width="97.8495" height="97.8495" fill="white"/>
</clipPath>
</defs>
</svg>
