<svg width="98" height="98" viewBox="0 0 98 98" fill="none" xmlns="http://www.w3.org/2000/svg">
<g clip-path="url(#clip0_295_6377)">
<path d="M17.3275 7.88682e-06H80.522C82.798 -0.00219235 85.0522 0.455987 87.1554 1.34832C89.2587 2.24066 91.1697 3.54964 92.7791 5.20034C94.3886 6.85104 95.6648 8.81107 96.5349 10.9682C97.4049 13.1254 97.8516 15.4374 97.8495 17.7718V80.0777C97.8516 82.4121 97.4049 84.7241 96.5349 86.8812C95.6648 89.0384 94.3886 90.9984 92.7791 92.6491C91.1697 94.2998 89.2587 95.6088 87.1554 96.5011C85.0522 97.3935 82.798 97.8517 80.522 97.8495H17.3275C15.0514 97.8517 12.7973 97.3935 10.694 96.5011C8.59079 95.6088 6.67977 94.2998 5.07033 92.6491C3.4609 90.9984 2.18465 89.0384 1.31462 86.8812C0.444588 84.7241 -0.00213754 82.4121 7.68965e-06 80.0777V17.7718C-0.00213754 15.4374 0.444588 13.1254 1.31462 10.9682C2.18465 8.81107 3.4609 6.85104 5.07033 5.20034C6.67977 3.54964 8.59079 2.24066 10.694 1.34832C12.7973 0.455987 15.0514 -0.00219235 17.3275 7.88682e-06Z" fill="#000B1D"/>
<path d="M83.2542 68.8307C83.807 67.8732 84.1506 66.7943 84.1506 65.8255V32.1954C84.1506 31.2266 83.8075 30.148 83.2545 29.1904L48.9247 49.0106L83.2542 68.8307Z" fill="#00599C"/>
<path d="M51.9753 87.9239L81.0999 71.109C81.9389 70.6246 82.7014 69.7882 83.2542 68.8304L48.9247 49.0103L14.5952 68.8306C15.148 69.7882 15.9108 70.6249 16.7495 71.109L45.8741 87.9239C47.5518 88.8928 50.2976 88.8928 51.9753 87.9239Z" fill="#004482"/>
<path d="M83.2545 29.1903C82.7014 28.2325 81.9387 27.3961 81.0999 26.9116L51.9753 10.0967C50.2976 9.12791 47.5518 9.12791 45.8741 10.0967L16.7495 26.9116C15.0716 27.8802 13.6989 30.2581 13.6989 32.1955V65.8256C13.6989 66.7944 14.0422 67.8733 14.5952 68.8308L48.9247 49.0107L83.2545 29.1903Z" fill="#659AD2"/>
<path d="M48.9247 72.4941C35.9757 72.4941 25.4409 61.9593 25.4409 49.0102C25.4409 36.0612 35.9757 25.5264 48.9247 25.5264C57.2804 25.5264 65.0731 30.0228 69.2615 37.2609L59.0983 43.142C57.002 39.5191 53.1035 37.2683 48.9247 37.2683C42.4501 37.2683 37.1828 42.5356 37.1828 49.0102C37.1828 55.4846 42.4501 60.7522 48.9247 60.7522C53.1039 60.7522 57.0025 58.5014 59.099 54.8778L69.2622 60.7586C65.0738 67.9974 57.2808 72.4941 48.9247 72.4941Z" fill="white"/>
<path d="M72.4086 47.7054H69.7991V45.0962H67.1901V47.7054H64.5806V50.3147H67.1901V52.9241H69.7991V50.3147H72.4086V47.7054Z" fill="white"/>
<path d="M82.1936 47.7054H79.5841V45.0962H76.9751V47.7054H74.3656V50.3147H76.9751V52.9241H79.5841V50.3147H82.1936V47.7054Z" fill="white"/>
</g>
<defs>
<clipPath id="clip0_295_6377">
<rect width="97.8495" height="97.8495" fill="white"/>
</clipPath>
</defs>
</svg>
