<svg width="98" height="98" viewBox="0 0 98 98" fill="none" xmlns="http://www.w3.org/2000/svg">
<g clip-path="url(#clip0_295_6398)">
<path d="M17.3275 7.88682e-06H80.522C82.798 -0.00219235 85.0522 0.455987 87.1554 1.34832C89.2587 2.24066 91.1697 3.54964 92.7791 5.20034C94.3886 6.85104 95.6648 8.81107 96.5349 10.9682C97.4049 13.1254 97.8516 15.4374 97.8495 17.7718V80.0777C97.8516 82.4121 97.4049 84.7241 96.5349 86.8812C95.6648 89.0384 94.3886 90.9984 92.7791 92.6491C91.1697 94.2998 89.2587 95.6088 87.1554 96.5011C85.0522 97.3935 82.798 97.8517 80.522 97.8495H17.3275C15.0514 97.8517 12.7973 97.3935 10.694 96.5011C8.59079 95.6088 6.67977 94.2998 5.07033 92.6491C3.4609 90.9984 2.18465 89.0384 1.31462 86.8812C0.444588 84.7241 -0.00213754 82.4121 7.68965e-06 80.0777V17.7718C-0.00213754 15.4374 0.444588 13.1254 1.31462 10.9682C2.18465 8.81107 3.4609 6.85104 5.07033 5.20034C6.67977 3.54964 8.59079 2.24066 10.694 1.34832C12.7973 0.455987 15.0514 -0.00219235 17.3275 7.88682e-06Z" fill="#000B1D"/>
<path d="M14.6858 42.8305C14.5296 42.8305 14.4906 42.7524 14.5687 42.6352L15.3887 41.581C15.4667 41.4638 15.662 41.3857 15.8182 41.3857H29.7578C29.914 41.3857 29.953 41.5029 29.8749 41.62L29.2111 42.6352C29.133 42.7524 28.9378 42.8695 28.8207 42.8695L14.6858 42.8305Z" fill="#2DBCAF"/>
<path d="M8.78982 46.4228C8.63364 46.4228 8.59459 46.3447 8.67268 46.2275L9.49266 45.1733C9.57075 45.0561 9.76599 44.978 9.92217 44.978H27.7274C27.8836 44.978 27.9617 45.0952 27.9226 45.2123L27.6103 46.1494C27.5712 46.3056 27.415 46.3837 27.2588 46.3837L8.78982 46.4228Z" fill="#2DBCAF"/>
<path d="M18.2391 50.015C18.0829 50.015 18.0438 49.8979 18.1219 49.7808L18.6686 48.8046C18.7467 48.6875 18.9029 48.5703 19.059 48.5703H26.8684C27.0245 48.5703 27.1026 48.6875 27.1026 48.8436L27.0245 49.7808C27.0245 49.9369 26.8684 50.0541 26.7512 50.0541L18.2391 50.015Z" fill="#2DBCAF"/>
<path d="M58.7694 42.1277C56.3094 42.7524 54.6304 43.221 52.2095 43.8457C51.6238 44.0019 51.5848 44.0409 51.0772 43.4552C50.4915 42.7915 50.062 42.3619 49.242 41.9715C46.7821 40.761 44.4002 41.1125 42.1746 42.5572C39.5194 44.2752 38.1528 46.8133 38.1918 49.976C38.2309 53.0997 40.3784 55.6768 43.4631 56.1063C46.1183 56.4577 48.3439 55.5206 50.101 53.5293C50.4524 53.0997 50.7648 52.6312 51.1553 52.0845C49.7496 52.0845 47.9925 52.0845 43.6193 52.0845C42.7993 52.0845 42.6041 51.5769 42.8774 50.9131C43.385 49.7027 44.3221 47.6723 44.8688 46.6571C44.9859 46.4228 45.2593 46.0323 45.845 46.0323C47.8363 46.0323 55.1771 46.0323 60.0579 46.0323C59.9798 47.0866 59.9798 48.1408 59.8236 49.1951C59.3941 52.0064 58.3399 54.5835 56.6218 56.8482C53.8105 60.5576 50.1401 62.8614 45.4935 63.4861C41.667 63.9937 38.1137 63.2518 34.99 60.9091C32.1006 58.7224 30.4606 55.833 30.0311 52.2407C29.5235 47.9846 30.773 44.1581 33.3501 40.8001C36.1224 37.1688 39.7927 34.865 44.2831 34.045C47.9535 33.3812 51.4677 33.8108 54.6304 35.9583C56.6999 37.3249 58.1837 39.1992 59.1598 41.4639C59.3941 41.8153 59.2379 42.0105 58.7694 42.1277Z" fill="#2DBCAF"/>
<path d="M71.6938 63.7202C68.1405 63.6421 64.8997 62.6269 62.1664 60.2841C59.8627 58.2927 58.4179 55.7547 57.9494 52.7481C57.2466 48.3358 58.457 44.4312 61.1122 40.956C63.9626 37.2076 67.3987 35.2552 72.0452 34.4353C76.0279 33.7324 79.7764 34.1229 83.1735 36.4266C86.2581 38.5351 88.1714 41.3855 88.679 45.134C89.3428 50.4053 87.82 54.7004 84.1887 58.3708C81.6116 60.9869 78.4488 62.6269 74.8175 63.3687C73.7632 63.564 72.709 63.603 71.6938 63.7202ZM80.9869 47.9454C80.9478 47.4378 80.9478 47.0473 80.8697 46.6568C80.1669 42.7912 76.6136 40.6046 72.9042 41.4636C69.2729 42.2836 66.9301 44.5874 66.0711 48.2577C65.3682 51.3034 66.852 54.388 69.6634 55.6375C71.8109 56.5746 73.9585 56.4575 76.0279 55.4033C79.1126 53.8023 80.7916 51.3034 80.9869 47.9454Z" fill="#2DBCAF"/>
</g>
<defs>
<clipPath id="clip0_295_6398">
<rect width="97.8495" height="97.8495" fill="white"/>
</clipPath>
</defs>
</svg>
