<svg width="98" height="98" viewBox="0 0 98 98" fill="none" xmlns="http://www.w3.org/2000/svg">
<g clip-path="url(#clip0_295_6361)">
<path d="M17.3275 7.88682e-06H80.5219C82.798 -0.00219235 85.0522 0.455987 87.1554 1.34832C89.2587 2.24066 91.1697 3.54964 92.7791 5.20034C94.3886 6.85104 95.6648 8.81107 96.5349 10.9682C97.4049 13.1254 97.8516 15.4374 97.8495 17.7718V80.0777C97.8516 82.4121 97.4049 84.7241 96.5349 86.8812C95.6648 89.0384 94.3886 90.9984 92.7791 92.6491C91.1697 94.2998 89.2587 95.6088 87.1554 96.5011C85.0522 97.3935 82.798 97.8517 80.5219 97.8495H17.3275C15.0514 97.8517 12.7973 97.3935 10.694 96.5011C8.59079 95.6088 6.67977 94.2998 5.07033 92.6491C3.4609 90.9984 2.18465 89.0384 1.31462 86.8812C0.444588 84.7241 -0.00213754 82.4121 7.68965e-06 80.0777V17.7718C-0.00213754 15.4374 0.444588 13.1254 1.31462 10.9682C2.18465 8.81107 3.4609 6.85104 5.07033 5.20034C6.67977 3.54964 8.59079 2.24066 10.694 1.34832C12.7973 0.455987 15.0514 -0.00219235 17.3275 7.88682e-06Z" fill="#F0F0F0"/>
<path d="M75.8731 25.7139L70.963 80.7198L48.8918 86.8386L26.8813 80.7283L21.9763 25.7139H75.8731Z" fill="#E44D26"/>
<path d="M48.9247 82.1614L66.7594 77.2171L70.9552 30.2119H48.9247V82.1614Z" fill="#F16529"/>
<path d="M39.3796 43.7068H48.9247V36.9595H32.0057L32.1671 38.7696L33.8255 57.3634H48.9247V50.6161H39.9963L39.3796 43.7068ZM40.9003 60.7371H34.127L35.0722 71.3314L48.8937 75.1681L48.9247 75.1596V68.1396L48.8951 68.1474L41.3807 66.1184L40.9003 60.7371Z" fill="#EBEBEB"/>
<path d="M26.9908 10.7632H30.4196V14.1509H33.5564V10.7632H36.9855V21.022H33.5566V17.5867H30.4199V21.022H26.991V10.7632H26.9908ZM41.4944 14.1652H38.4762V10.7632H47.944V14.1652H44.9239V21.022H41.495V14.1652H41.4948H41.4944ZM49.4465 10.7632H53.0218L55.2211 14.3679L57.4183 10.7632H60.9951V21.022H57.5802V15.9372L55.2211 19.5847H55.162L52.8015 15.9372V21.022H49.4465V10.7632ZM62.7015 10.7632H66.1315V17.6311H70.9535V21.022H62.7013V10.7632H62.7015Z" fill="black"/>
<path d="M48.9015 57.3634H57.21L56.4266 66.1142L48.9012 68.1453V75.1649L62.7337 71.3314L62.8351 70.1914L64.4208 52.4279L64.5854 50.6161H48.9015V57.3634ZM48.9015 43.6903V43.7068H65.1994L65.3346 42.1903L65.6422 38.7696L65.8034 36.9595H48.9015V43.6905V43.6903Z" fill="white"/>
</g>
<defs>
<clipPath id="clip0_295_6361">
<rect width="97.8495" height="97.8495" fill="white"/>
</clipPath>
</defs>
</svg>
