<svg width="98" height="98" viewBox="0 0 98 98" fill="none" xmlns="http://www.w3.org/2000/svg">
<g clip-path="url(#clip0_295_6358)">
<path d="M17.3275 7.88682e-06H80.5219C82.798 -0.00219235 85.0522 0.455987 87.1554 1.34832C89.2587 2.24066 91.1697 3.54964 92.7791 5.20034C94.3886 6.85104 95.6648 8.81107 96.5349 10.9682C97.4049 13.1254 97.8516 15.4374 97.8495 17.7718V80.0777C97.8516 82.4121 97.4049 84.7241 96.5349 86.8812C95.6648 89.0384 94.3886 90.9984 92.7791 92.6491C91.1697 94.2998 89.2587 95.6088 87.1554 96.5011C85.0522 97.3935 82.798 97.8517 80.5219 97.8495H17.3275C15.0514 97.8517 12.7973 97.3935 10.694 96.5011C8.59079 95.6088 6.67977 94.2998 5.07033 92.6491C3.4609 90.9984 2.18465 89.0384 1.31462 86.8812C0.444588 84.7241 -0.00213754 82.4121 7.68965e-06 80.0777V17.7718C-0.00213754 15.4374 0.444588 13.1254 1.31462 10.9682C2.18465 8.81107 3.4609 6.85104 5.07033 5.20034C6.67977 3.54964 8.59079 2.24066 10.694 1.34832C12.7973 0.455987 15.0514 -0.00219235 17.3275 7.88682e-06Z" fill="#F7DF1E"/>
<path d="M65.8962 76.5633C67.8672 79.7815 70.4314 82.1469 74.9667 82.1469C78.7766 82.1469 81.2104 80.2428 81.2104 77.6117C81.2104 74.4588 78.7098 73.342 74.5163 71.5077L72.2176 70.5215C65.5824 67.6947 61.1746 64.1535 61.1746 56.6672C61.1746 49.7712 66.4289 44.5215 74.6405 44.5215C80.4866 44.5215 84.6895 46.5561 87.7182 51.8835L80.5581 56.4809C78.9816 53.6541 77.2809 52.5405 74.6405 52.5405C71.9473 52.5405 70.2404 54.249 70.2404 56.4809C70.2404 59.2393 71.9489 60.356 75.8939 62.0645L78.1926 63.0492C86.005 66.3994 90.416 69.8148 90.416 77.4936C90.416 85.772 83.9129 90.3073 75.1795 90.3073C66.6402 90.3073 61.1233 86.238 58.4239 80.9044L65.8962 76.5633ZM33.4148 77.3601C34.8593 79.9228 36.1732 82.0895 39.3324 82.0895C42.3533 82.0895 44.259 80.9075 44.259 76.3117V45.0465H53.4538V76.4359C53.4538 85.9569 47.8717 90.2902 39.7238 90.2902C32.3618 90.2902 28.0983 86.4803 25.9301 81.8914L33.4148 77.3601Z" fill="black"/>
</g>
<defs>
<clipPath id="clip0_295_6358">
<rect width="97.8495" height="97.8495" fill="white"/>
</clipPath>
</defs>
</svg>
