<svg width="98" height="98" viewBox="0 0 98 98" fill="none" xmlns="http://www.w3.org/2000/svg">
<g clip-path="url(#clip0_295_6435)">
<path d="M17.3275 7.88682e-06H80.5219C82.798 -0.00219235 85.0522 0.455987 87.1554 1.34832C89.2587 2.24066 91.1697 3.54964 92.7791 5.20034C94.3886 6.85104 95.6648 8.81107 96.5349 10.9682C97.4049 13.1254 97.8516 15.4374 97.8495 17.7718V80.0777C97.8516 82.4121 97.4049 84.7241 96.5349 86.8812C95.6648 89.0384 94.3886 90.9984 92.7791 92.6491C91.1697 94.2998 89.2587 95.6088 87.1554 96.5011C85.0522 97.3935 82.798 97.8517 80.5219 97.8495H17.3275C15.0514 97.8517 12.7973 97.3935 10.694 96.5011C8.59079 95.6088 6.67977 94.2998 5.07033 92.6491C3.4609 90.9984 2.18465 89.0384 1.31462 86.8812C0.444587 84.7241 -0.00213754 82.4121 7.68965e-06 80.0777V17.7718C-0.00213754 15.4374 0.444587 13.1254 1.31462 10.9682C2.18465 8.81107 3.4609 6.85104 5.07033 5.20034C6.67977 3.54964 8.59079 2.24066 10.694 1.34832C12.7973 0.455987 15.0514 -0.00219235 17.3275 7.88682e-06Z" fill="#F0F0F0"/>
<path d="M68.1875 71.9547H67.8922V71.7896H68.687V71.9547H68.3938V72.7787H68.1875V71.9547ZM69.7727 71.9977H69.768L69.4755 72.7789H69.3417L69.051 71.9977H69.0474V72.7789H68.853V71.7897H69.1391L69.4086 72.4902L69.6772 71.7897H69.9623V72.7789H69.7725V71.9977H69.7727Z" fill="#E76F00"/>
<path d="M41.7594 51.7275C41.7594 51.7275 39.7054 52.922 43.2212 53.3262C47.4804 53.8121 49.6573 53.7424 54.351 52.8541C54.351 52.8541 55.585 53.6278 57.3085 54.298C46.7864 58.8076 33.4949 54.0368 41.7594 51.7275Z" fill="#5382A1"/>
<path d="M40.4737 45.8428C40.4737 45.8428 38.1699 47.5481 41.6883 47.912C46.2382 48.3814 49.8313 48.4198 56.0488 47.2225C56.0488 47.2225 56.9087 48.0944 58.261 48.5712C45.5391 52.2912 31.3693 48.8645 40.4737 45.8428Z" fill="#5382A1"/>
<path d="M51.3129 35.8604C53.9056 38.8454 50.6318 41.5315 50.6318 41.5315C50.6318 41.5315 57.2149 38.133 54.1916 33.8774C51.3678 29.9088 49.2024 27.9369 60.9251 21.1382C60.9251 21.1382 42.5244 25.7338 51.3129 35.8604Z" fill="#E76F00"/>
<path d="M65.2292 56.0806C65.2292 56.0806 66.7492 57.333 63.5552 58.3019C57.4817 60.1418 38.2767 60.6974 32.9416 58.3752C31.0238 57.5409 34.6203 56.3831 35.7516 56.1401C36.9314 55.8843 37.6056 55.9319 37.6056 55.9319C35.4728 54.4295 23.82 58.8821 31.6866 60.1573C53.1399 63.6364 70.7939 58.5906 65.2292 56.0806Z" fill="#5382A1"/>
<path d="M42.7471 39.7456C42.7471 39.7456 32.9782 42.0658 39.2877 42.9084C41.9518 43.2651 47.2625 43.1844 52.2093 42.7699C56.2522 42.4289 60.3116 41.7038 60.3116 41.7038C60.3116 41.7038 58.8861 42.3143 57.8547 43.0185C47.9346 45.6275 28.7707 44.4138 34.2877 41.7451C38.9535 39.4897 42.7471 39.7456 42.7471 39.7456Z" fill="#5382A1"/>
<path d="M60.2714 49.5413C70.3557 44.3011 65.6931 39.2653 62.4387 39.9437C61.641 40.1098 61.2854 40.2536 61.2854 40.2536C61.2854 40.2536 61.5815 39.7897 62.1471 39.5889C68.5853 37.3255 73.5368 46.2648 60.0687 49.8054C60.0687 49.8055 60.2248 49.666 60.2714 49.5413Z" fill="#5382A1"/>
<path d="M54.1915 10.1602C54.1915 10.1602 59.7763 15.7469 48.8945 24.3377C40.1684 31.229 46.9047 35.1582 48.8909 39.6475C43.7973 35.0519 40.0593 31.0063 42.567 27.2411C46.2478 21.714 56.4448 19.0343 54.1915 10.1602Z" fill="#E76F00"/>
<path d="M43.738 63.7408C53.4177 64.3604 68.2819 63.397 68.6339 58.8169C68.6339 58.8169 67.9572 60.5532 60.6342 61.9321C52.3724 63.4869 42.1827 63.3053 36.139 62.3089C36.1392 62.3088 37.3762 63.3329 43.738 63.7408Z" fill="#5382A1"/>
<path d="M42.1518 81.2416C41.2386 82.0336 40.2742 82.4782 39.4087 82.4782C38.1734 82.4782 37.506 81.7375 37.506 80.5494C37.506 79.2642 38.2211 78.3246 41.09 78.3246H42.1516V81.2416H42.1518ZM44.6714 84.0844V75.2846C44.6714 73.0366 43.3893 71.5532 40.298 71.5532C38.4933 71.5532 36.9124 71.9988 35.6276 72.5672L35.9984 74.1249C37.0101 73.7535 38.3196 73.4079 39.6049 73.4079C41.3857 73.4079 42.1518 74.1249 42.1518 75.6072V76.7194H41.263C36.9363 76.7194 34.9846 78.3989 34.9846 80.9198C34.9846 83.0954 36.2708 84.332 38.6925 84.332C40.2491 84.332 41.4112 83.6893 42.4974 82.7488L42.6946 84.0846H44.6714V84.0844Z" fill="#E76F00"/>
<path d="M53.0804 84.0847H49.9378L46.1558 71.7764H48.9001L51.2469 79.3387L51.7686 81.6131C52.9558 78.3247 53.7955 74.9886 54.2155 71.7764H56.885C56.1698 75.8295 54.8827 80.2782 53.0804 84.0847Z" fill="#E76F00"/>
<path d="M65.1356 81.2416C64.2207 82.0336 63.2545 82.4782 62.3891 82.4782C61.1559 82.4782 60.4868 81.7375 60.4868 80.5494C60.4868 79.2642 61.2036 78.3246 64.0722 78.3246H65.1356V81.2416ZM67.6549 84.0844V75.2846C67.6549 73.0366 66.3696 71.5532 63.2819 71.5532C61.4759 71.5532 59.8945 71.9988 58.6102 72.5672L58.9805 74.1249C59.9926 73.7535 61.3046 73.4079 62.5889 73.4079C64.3683 73.4079 65.1356 74.1249 65.1356 75.6072V76.7194H64.2453C59.9174 76.7194 57.9666 78.3989 57.9666 80.9198C57.9666 83.0954 59.2517 84.332 61.673 84.332C63.2305 84.332 64.3921 83.6893 65.4802 82.7488L65.6781 84.0846H67.6549V84.0844Z" fill="#E76F00"/>
<path d="M32.2219 86.1748C31.5036 87.2236 30.3435 88.0533 29.0734 88.5226L27.8293 87.0587C28.7961 86.5627 29.6252 85.7615 30.0104 85.0153C30.3436 84.3516 30.4815 83.4963 30.4815 81.4508V67.3989H33.1585V81.2583C33.1583 83.9929 32.9397 85.0976 32.2219 86.1748Z" fill="#E76F00"/>
</g>
<defs>
<clipPath id="clip0_295_6435">
<rect width="97.8495" height="97.8495" fill="white"/>
</clipPath>
</defs>
</svg>
