<svg width="98" height="98" viewBox="0 0 98 98" fill="none" xmlns="http://www.w3.org/2000/svg">
<g clip-path="url(#clip0_295_6420)">
<path d="M17.3275 7.88682e-06H80.5219C82.798 -0.00219235 85.0522 0.455987 87.1554 1.34832C89.2587 2.24066 91.1697 3.54964 92.7791 5.20034C94.3886 6.85104 95.6648 8.81107 96.5349 10.9682C97.4049 13.1254 97.8516 15.4374 97.8495 17.7718V80.0777C97.8516 82.4121 97.4049 84.7241 96.5349 86.8812C95.6648 89.0384 94.3886 90.9984 92.7791 92.6491C91.1697 94.2998 89.2587 95.6088 87.1554 96.5011C85.0522 97.3935 82.798 97.8517 80.5219 97.8495H17.3275C15.0514 97.8517 12.7973 97.3935 10.694 96.5011C8.59079 95.6088 6.67977 94.2998 5.07033 92.6491C3.4609 90.9984 2.18465 89.0384 1.31462 86.8812C0.444587 84.7241 -0.00213754 82.4121 7.68965e-06 80.0777V17.7718C-0.00213754 15.4374 0.444587 13.1254 1.31462 10.9682C2.18465 8.81107 3.4609 6.85104 5.07033 5.20034C6.67977 3.54964 8.59079 2.24066 10.694 1.34832C12.7973 0.455987 15.0514 -0.00219235 17.3275 7.88682e-06Z" fill="#777BB3"/>
<path d="M23.0827 54.6414C25.4619 54.6414 27.238 54.2026 28.3618 53.3377C29.4736 52.4817 30.2415 50.9986 30.644 48.9298C31.0193 46.9961 30.8763 45.6459 30.2192 44.9173C29.5474 44.173 28.0948 43.7956 25.902 43.7956H22.0999L19.992 54.6414H23.0827ZM10.6469 68.0015C10.4704 68.0015 10.3028 67.9226 10.1906 67.7861C10.0782 67.6499 10.0326 67.4704 10.0664 67.2971L15.6525 38.5555C15.7066 38.2777 15.9501 38.0769 16.2333 38.0769H28.2729C32.0567 38.0769 34.8731 39.1043 36.6433 41.1309C38.423 43.1681 38.9726 46.0158 38.2767 49.5948C37.9935 51.0528 37.5064 52.407 36.8291 53.6193C36.1509 54.8331 35.2547 55.9561 34.1647 56.9579C32.8601 58.1789 31.3835 59.0643 29.7799 59.5853C28.2017 60.0994 26.1749 60.3601 23.7559 60.3601H18.8808L17.4886 67.5227C17.4346 67.8007 17.1913 68.0015 16.9081 68.0015H10.6469Z" fill="black"/>
<path d="M22.5876 44.3874H25.902C28.5486 44.3874 29.4679 44.9681 29.7803 45.3142C30.2985 45.8889 30.3963 47.1004 30.0633 48.8178C29.689 50.7405 28.9953 52.1037 28.001 52.8692C26.9831 53.6529 25.3282 54.05 23.0827 54.05H20.7097L22.5876 44.3874ZM28.2729 37.4855H16.2331C15.6668 37.4855 15.1799 37.887 15.0718 38.4429L9.48563 67.1845C9.41819 67.5314 9.50929 67.8901 9.7339 68.1628C9.9587 68.4355 10.2935 68.5933 10.6469 68.5933H16.9079C17.4745 68.5933 17.9613 68.1918 18.0694 67.6359L19.3685 60.9519H23.7559C26.2371 60.9519 28.3258 60.6813 29.9635 60.1479C31.6477 59.6007 33.1973 58.6729 34.5688 57.3903C35.7031 56.3468 36.6374 55.1754 37.3453 53.9084C38.0535 52.6411 38.5622 51.2278 38.8574 49.7078C39.59 45.9405 38.9949 42.9238 37.0888 40.742C35.2012 38.5812 32.235 37.4855 28.2729 37.4855ZM19.2743 55.2332H23.0827C25.607 55.2332 27.4873 54.7578 28.7227 53.8067C29.9584 52.8554 30.7917 51.2678 31.2248 49.043C31.6391 46.907 31.4503 45.3996 30.6586 44.5215C29.8659 43.6434 28.2806 43.2042 25.902 43.2042H21.6122L19.2743 55.2332ZM28.2729 38.6687C31.8948 38.6687 34.5371 39.6192 36.1979 41.5204C37.8584 43.4215 38.3585 46.0752 37.696 49.4822C37.4232 50.8856 36.962 52.1688 36.3126 53.3312C35.6625 54.4945 34.8135 55.5582 33.7645 56.5227C32.5142 57.6926 31.1254 58.5264 29.5971 59.0229C28.0688 59.5208 26.1223 59.7687 23.7559 59.7687H18.393L16.9079 67.4101H10.6469L16.2331 38.6687H28.2729Z" fill="white"/>
<path d="M52.6323 60.3604C52.4556 60.3604 52.2882 60.2815 52.176 60.145C52.0634 60.0088 52.0178 59.8295 52.0515 59.656L54.5226 46.939C54.7576 45.7296 54.6997 44.8615 54.3595 44.4947C54.1513 44.2705 53.5258 43.8945 51.6763 43.8945H47.1995L44.0927 59.8816C44.0386 60.1596 43.7951 60.3604 43.5119 60.3604H37.3002C37.1236 60.3604 36.9561 60.2815 36.8437 60.145C36.7313 60.0088 36.6858 59.8293 36.7195 59.656L42.3057 30.9144C42.3597 30.6365 42.6032 30.4358 42.8864 30.4358H49.0981C49.2748 30.4358 49.4422 30.5147 49.5546 30.6509C49.667 30.7874 49.7126 30.9667 49.6789 31.1402L48.3308 38.0772H53.1467C56.8156 38.0772 59.3034 38.724 60.7524 40.0546C62.2294 41.4121 62.6903 43.5827 62.1223 46.5067L59.5233 59.8816C59.4693 60.1596 59.2259 60.3604 58.9425 60.3604H52.6323Z" fill="black"/>
<path d="M49.0981 29.8439H42.8864C42.3199 29.8439 41.833 30.2454 41.7249 30.8013L36.1388 59.5429C36.0713 59.8898 36.1624 60.2485 36.3872 60.5212C36.612 60.7939 36.9469 60.9517 37.3003 60.9517H43.5119C44.0783 60.9517 44.5654 60.5502 44.6734 59.9943L47.6872 44.4858H51.6763C53.5226 44.4858 53.9101 44.8802 53.9257 44.8971C54.0377 45.0176 54.185 45.5757 53.9419 46.8259L51.4708 59.5429C51.4033 59.8898 51.4944 60.2485 51.7193 60.5212C51.9441 60.7939 52.2789 60.9517 52.6323 60.9517H58.9426C59.5089 60.9517 59.996 60.5502 60.104 59.9943L62.7029 46.6194C63.3128 43.4799 62.791 41.1247 61.1527 39.619C59.5894 38.1832 56.9706 37.4853 53.1468 37.4853H49.0482L50.2596 31.2529C50.3268 30.906 50.2359 30.5471 50.0111 30.2746C49.7863 30.0019 49.4515 29.8439 49.0981 29.8439ZM49.0981 31.0271L47.613 38.6685H53.1468C56.6287 38.6685 59.0303 39.2762 60.3521 40.4902C61.6739 41.7049 62.0699 43.6731 61.5416 46.3938L58.9426 59.7685H52.6323L55.1033 47.0517C55.3845 45.605 55.2812 44.6183 54.793 44.0922C54.3045 43.566 53.2655 43.3026 51.6763 43.3026H46.7116L43.5119 59.7685H37.3003L42.8864 31.0271H49.0981Z" fill="white"/>
<path d="M71.951 54.6414C74.3301 54.6414 76.1063 54.2026 77.2301 53.3377C78.3419 52.4819 79.1098 50.9988 79.5125 48.9298C79.8877 46.9961 79.7448 45.6459 79.0875 44.9173C78.4157 44.173 76.9631 43.7956 74.7703 43.7956H70.9681L68.8603 54.6414H71.951ZM59.5154 68.0015C59.3389 68.0015 59.1713 67.9226 59.0591 67.7861C58.9467 67.6499 58.9009 67.4704 58.9346 67.2971L64.5208 38.5555C64.575 38.2777 64.8184 38.0769 65.1017 38.0769H77.1412C80.9252 38.0769 83.7413 39.1043 85.5118 41.1309C87.2915 43.1679 87.8409 46.0156 87.1451 49.5948C86.8616 51.0528 86.3747 52.407 85.6973 53.6193C85.0192 54.8331 84.1229 55.9561 83.033 56.9579C81.7284 58.1789 80.2518 59.0643 78.6481 59.5853C77.07 60.0994 75.0432 60.3601 72.6242 60.3601H67.7489L66.3573 67.5227C66.3031 67.8007 66.0597 68.0015 65.7764 68.0015H59.5154Z" fill="black"/>
<path d="M71.4559 44.3874H74.7704C77.4169 44.3874 78.3363 44.9681 78.6486 45.3142C79.1671 45.8889 79.2649 47.1004 78.9316 48.8176C78.5573 50.7405 77.8634 52.1037 76.8693 52.8692C75.8514 53.6529 74.1965 54.05 71.951 54.05H69.5782L71.4559 44.3874ZM77.1413 37.4855H65.1016C64.5353 37.4855 64.0484 37.887 63.9403 38.4429L58.3542 67.1845C58.2867 67.5314 58.3778 67.8901 58.6024 68.1628C58.8272 68.4355 59.1621 68.5933 59.5155 68.5933H65.7764C66.3428 68.5933 66.8299 68.1918 66.9379 67.6359L68.2369 60.9519H72.6243C75.1054 60.9519 77.1941 60.6813 78.8318 60.1479C80.5161 59.6007 82.066 58.6727 83.4375 57.3899C84.5718 56.3466 85.5057 55.1754 86.2137 53.9084C86.9218 52.6411 87.4306 51.2278 87.7258 49.7078C88.4584 45.9403 87.8632 42.9236 85.9571 40.7418C84.0696 38.5812 81.1035 37.4855 77.1413 37.4855ZM68.1428 55.2332H71.951C74.4754 55.2332 76.3556 54.7578 77.5911 53.8067C78.8269 52.8554 79.66 51.2678 80.0931 49.043C80.5076 46.907 80.3189 45.3996 79.5269 44.5215C78.7342 43.6434 77.1489 43.2042 74.7704 43.2042H70.4806L68.1428 55.2332ZM77.1413 38.6687C80.7632 38.6687 83.4054 39.6192 85.0662 41.5204C86.727 43.4215 87.2269 46.0752 86.5643 49.4822C86.2916 50.8856 85.8303 52.1688 85.181 53.3312C84.5308 54.4945 83.6819 55.5582 82.6328 56.5227C81.3826 57.6926 79.9937 58.5264 78.4654 59.0229C76.9372 59.5208 74.9906 59.7687 72.6243 59.7687H67.2613L65.7764 67.4101H59.5155L65.1016 38.6687H77.1413Z" fill="white"/>
</g>
<defs>
<clipPath id="clip0_295_6420">
<rect width="97.8495" height="97.8495" fill="white"/>
</clipPath>
</defs>
</svg>
