<svg width="98" height="98" viewBox="0 0 98 98" fill="none" xmlns="http://www.w3.org/2000/svg">
<g clip-path="url(#clip0_295_6451)">
<path d="M17.3275 7.88682e-06H80.5219C82.798 -0.00219235 85.0522 0.455987 87.1554 1.34832C89.2587 2.24066 91.1697 3.54964 92.7791 5.20034C94.3886 6.85104 95.6648 8.81107 96.5349 10.9682C97.4049 13.1254 97.8516 15.4374 97.8495 17.7718V80.0777C97.8516 82.4121 97.4049 84.7241 96.5349 86.8812C95.6648 89.0384 94.3886 90.9984 92.7791 92.6491C91.1697 94.2998 89.2587 95.6088 87.1554 96.5011C85.0522 97.3935 82.798 97.8517 80.5219 97.8495H17.3275C15.0514 97.8517 12.7973 97.3935 10.694 96.5011C8.59079 95.6088 6.67977 94.2998 5.07033 92.6491C3.4609 90.9984 2.18465 89.0384 1.31462 86.8812C0.444587 84.7241 -0.00213754 82.4121 7.68965e-06 80.0777V17.7718C-0.00213754 15.4374 0.444587 13.1254 1.31462 10.9682C2.18465 8.81107 3.4609 6.85104 5.07033 5.20034C6.67977 3.54964 8.59079 2.24066 10.694 1.34832C12.7973 0.455987 15.0514 -0.00219235 17.3275 7.88682e-06Z" fill="#000B1D"/>
<path d="M48.787 16.145C31.8264 16.145 32.8855 23.5002 32.8855 23.5002L32.9044 31.12H49.0895V33.4078H26.4758C26.4758 33.4078 15.6227 32.177 15.6227 49.2904C15.6227 66.4038 25.0955 65.7969 25.0955 65.7969H30.7489V57.8556C30.7489 57.8556 30.4442 48.3828 40.0705 48.3828C49.6967 48.3828 56.1232 48.3828 56.1232 48.3828C56.1232 48.3828 65.1422 48.5286 65.1422 39.6663C65.1422 30.804 65.1422 25.0128 65.1422 25.0128C65.1422 25.0128 66.5115 16.145 48.787 16.145ZM39.8625 21.269C41.4728 21.269 42.7743 22.5705 42.7743 24.1808C42.7743 25.7911 41.4728 27.0926 39.8625 27.0926C38.2522 27.0926 36.9507 25.7911 36.9507 24.1808C36.9507 22.5705 38.2522 21.269 39.8625 21.269Z" fill="url(#paint0_linear_295_6451)"/>
<path d="M49.2687 82.6072C66.2293 82.6072 65.1702 75.2521 65.1702 75.2521L65.1512 67.6322H48.9662V65.3444H71.5799C71.5799 65.3444 82.433 66.5752 82.433 49.4618C82.433 32.3484 72.9602 32.9553 72.9602 32.9553H67.3067V40.8966C67.3067 40.8966 67.6115 50.3694 57.9852 50.3694C48.3589 50.3694 41.9325 50.3694 41.9325 50.3694C41.9325 50.3694 32.9134 50.2236 32.9134 59.0859C32.9134 67.9482 32.9134 73.7394 32.9134 73.7394C32.9134 73.7394 31.5441 82.6072 49.2687 82.6072ZM58.1932 77.4832C56.5829 77.4832 55.2814 76.1817 55.2814 74.5714C55.2814 72.9611 56.5829 71.6596 58.1932 71.6596C59.8035 71.6596 61.105 72.9611 61.105 74.5714C61.105 76.1817 59.8035 77.4832 58.1932 77.4832Z" fill="url(#paint1_linear_295_6451)"/>
</g>
<defs>
<linearGradient id="paint0_linear_295_6451" x1="22.0433" y1="21.9544" x2="55.079" y2="55.1006" gradientUnits="userSpaceOnUse">
<stop stop-color="#387EB8"/>
<stop offset="1" stop-color="#366994"/>
</linearGradient>
<linearGradient id="paint1_linear_295_6451" x1="42.3655" y1="43.0404" x2="77.846" y2="77.0325" gradientUnits="userSpaceOnUse">
<stop stop-color="#FFE052"/>
<stop offset="1" stop-color="#FFC331"/>
</linearGradient>
<clipPath id="clip0_295_6451">
<rect width="97.8495" height="97.8495" fill="white"/>
</clipPath>
</defs>
</svg>
