<svg width="98" height="98" viewBox="0 0 98 98" fill="none" xmlns="http://www.w3.org/2000/svg">
<g clip-path="url(#clip0_295_6369)">
<path d="M17.3275 7.88682e-06H80.5219C82.798 -0.00219235 85.0522 0.455987 87.1554 1.34832C89.2587 2.24066 91.1697 3.54964 92.7791 5.20034C94.3886 6.85104 95.6648 8.81107 96.5349 10.9682C97.4049 13.1254 97.8516 15.4374 97.8495 17.7718V80.0777C97.8516 82.4121 97.4049 84.7241 96.5349 86.8812C95.6648 89.0384 94.3886 90.9984 92.7791 92.6491C91.1697 94.2998 89.2587 95.6088 87.1554 96.5011C85.0522 97.3935 82.798 97.8517 80.5219 97.8495H17.3275C15.0514 97.8517 12.7973 97.3935 10.694 96.5011C8.59079 95.6088 6.67977 94.2998 5.07033 92.6491C3.4609 90.9984 2.18465 89.0384 1.31462 86.8812C0.444588 84.7241 -0.00213754 82.4121 7.68965e-06 80.0777V17.7718C-0.00213754 15.4374 0.444588 13.1254 1.31462 10.9682C2.18465 8.81107 3.4609 6.85104 5.07033 5.20034C6.67977 3.54964 8.59079 2.24066 10.694 1.34832C12.7973 0.455987 15.0514 -0.00219235 17.3275 7.88682e-06Z" fill="#000B1D"/>
<g clip-path="url(#clip1_295_6369)">
<path d="M48.9247 55.3946C52.6817 55.3946 55.7274 52.3884 55.7274 48.68C55.7274 44.9716 52.6817 41.9653 48.9247 41.9653C45.1677 41.9653 42.1221 44.9716 42.1221 48.68C42.1221 52.3884 45.1677 55.3946 48.9247 55.3946Z" fill="#61DAFB"/>
<path fill-rule="evenodd" clip-rule="evenodd" d="M16.3566 44.4901C14.7061 45.9608 14.0127 47.3792 14.0127 48.6798C14.0127 49.9804 14.7061 51.3989 16.3566 52.8696C18.007 54.3402 20.4844 55.7364 23.681 56.9412C30.0634 59.3465 38.9879 60.8672 48.9247 60.8672C58.8615 60.8672 67.7861 59.3465 74.1684 56.9412C77.3651 55.7364 79.8425 54.3402 81.4929 52.8696C83.1434 51.3989 83.8368 49.9804 83.8368 48.6798C83.8368 47.3792 83.1434 45.9608 81.4929 44.4901C79.8425 43.0195 77.3651 41.6233 74.1684 40.4185C67.7861 38.0131 58.8615 36.4925 48.9247 36.4925C38.9879 36.4925 30.0634 38.0131 23.681 40.4185C20.4844 41.6233 18.007 43.0195 16.3566 44.4901ZM22.5467 37.486C29.3755 34.9124 38.702 33.3535 48.9247 33.3535C59.1475 33.3535 68.474 34.9124 75.3028 37.486C78.7117 38.7708 81.5799 40.3389 83.6238 42.16C85.6675 43.981 87.0169 46.1816 87.0169 48.6798C87.0169 51.1781 85.6675 53.3786 83.6238 55.1996C81.5799 57.0208 78.7117 58.5889 75.3028 59.8736C68.474 62.4473 59.1475 64.0062 48.9247 64.0062C38.702 64.0062 29.3755 62.4473 22.5467 59.8736C19.1377 58.5889 16.2695 57.0208 14.2257 55.1996C12.182 53.3786 10.8326 51.1781 10.8326 48.6798C10.8326 46.1816 12.182 43.981 14.2257 42.16C16.2695 40.3389 19.1377 38.7708 22.5467 37.486Z" fill="#61DAFB"/>
<path fill-rule="evenodd" clip-rule="evenodd" d="M36.3167 18.7449C34.2011 18.0694 32.6098 18.1859 31.4687 18.8362C30.3276 19.4865 29.4297 20.7884 28.9647 22.9347C28.4996 25.0807 28.5133 27.8966 29.0546 31.2315C30.1353 37.89 33.2634 46.2792 38.2318 54.7734C43.2002 63.2676 48.9967 70.1361 54.2983 74.3892C56.9536 76.5194 59.4174 77.939 61.5328 78.6145C63.6484 79.2901 65.2396 79.1735 66.3808 78.5232C67.5219 77.8729 68.4197 76.571 68.8848 74.4247C69.3498 72.2787 69.3362 69.4628 68.7949 66.1279C67.7141 59.4694 64.586 51.0802 59.6176 42.586C54.6492 34.0919 48.8528 27.2233 43.5512 22.9702C40.8958 20.84 38.4321 19.4204 36.3167 18.7449ZM45.5569 20.5343C51.2293 25.0849 57.2603 32.2779 62.3717 41.0165C67.4831 49.7552 70.7786 58.5071 71.9349 65.6313C72.5122 69.1877 72.5705 72.4236 71.9946 75.0813C71.4187 77.7387 70.1627 79.9925 67.9708 81.2417C65.7789 82.4908 63.1735 82.4375 60.5539 81.6011C57.9342 80.7645 55.1243 79.0968 52.2926 76.8251C46.6201 72.2745 40.5891 65.0815 35.4778 56.3429C30.3664 47.6042 27.0709 38.8523 25.9145 31.7281C25.3373 28.1717 25.279 24.9358 25.8549 22.2781C26.4308 19.6207 27.6868 17.3669 29.8787 16.1178C32.0706 14.8686 34.676 14.9219 37.2955 15.7584C39.9153 16.5949 42.7252 18.2627 45.5569 20.5343Z" fill="#61DAFB"/>
<path fill-rule="evenodd" clip-rule="evenodd" d="M68.8848 22.9345C68.4197 20.7883 67.5219 19.4863 66.3808 18.836C65.2396 18.1857 63.6484 18.0692 61.5328 18.7448C59.4174 19.4203 56.9536 20.8399 54.2983 22.9701C48.9967 27.2231 43.2002 34.0917 38.2318 42.5859C33.2634 51.08 30.1354 59.4693 29.0546 66.1277C28.5133 69.4627 28.4996 72.2785 28.9647 74.4246C29.4298 76.5708 30.3276 77.8728 31.4687 78.5231C32.6098 79.1734 34.2011 79.2899 36.3167 78.6143C38.4321 77.9388 40.8958 76.5192 43.5512 74.3891C48.8528 70.136 54.6493 63.2674 59.6177 54.7732C64.5861 46.2791 67.7141 37.8898 68.7949 31.2314C69.3362 27.8964 69.3499 25.0806 68.8848 22.9345ZM71.935 31.7279C70.7786 38.8522 67.4831 47.6041 62.3717 56.3427C57.2603 65.0813 51.2293 72.2744 45.5569 76.825C42.7252 79.0966 39.9153 80.7644 37.2955 81.6009C34.676 82.4374 32.0706 82.4906 29.8787 81.2415C27.6868 79.9924 26.4308 77.7386 25.8549 75.0811C25.279 72.4234 25.3373 69.1876 25.9145 65.6312C27.0709 58.507 30.3664 49.755 35.4778 41.0164C40.5892 32.2778 46.6202 25.0847 52.2926 20.5342C55.1243 18.2625 57.9342 16.5947 60.5539 15.7582C63.1735 14.9217 65.7789 14.8685 67.9708 16.1176C70.1627 17.3667 71.4187 19.6205 71.9946 22.278C72.5705 24.9357 72.5122 28.1715 71.935 31.7279Z" fill="#61DAFB"/>
</g>
</g>
<defs>
<clipPath id="clip0_295_6369">
<rect width="97.8495" height="97.8495" fill="white"/>
</clipPath>
<clipPath id="clip1_295_6369">
<rect width="76.3226" height="67.0269" fill="white" transform="translate(10.7634 15.1665)"/>
</clipPath>
</defs>
</svg>
